<svg viewBox="0 0 128 128" fill="none" xmlns="http://www.w3.org/2000/svg">
<path d="M68.9548 44.7554C65.6654 42.8775 62.1075 41.6809 58.3599 41.2176C54.7468 40.7736 51.1228 41.0069 47.5857 41.9372C44.0573 42.8653 40.7836 44.428 37.8723 46.5789C34.8627 48.8104 32.3661 51.5721 30.4573 54.7989L9.02076 91.2299C7.51053 93.7778 6.5559 96.535 6.17756 99.4413C5.81705 102.243 6.00466 105.055 6.74785 107.803C7.48644 110.534 8.73287 113.058 10.4515 115.313C12.2276 117.643 14.4391 119.568 17.0204 121.049C19.6017 122.529 22.4038 123.46 25.34 123.827C28.1806 124.182 31.0299 123.989 33.8078 123.258C36.5857 122.528 39.1543 121.296 41.4404 119.601C43.8099 117.839 45.7698 115.656 47.2715 113.11L64.3207 84.2031C65.4174 82.3472 66.1023 80.3353 66.3719 78.2231C66.6342 76.1857 66.4868 74.1376 65.9484 72.1469C64.8393 68.0461 62.182 64.6442 58.4626 62.5423C54.7425 60.4041 50.4082 59.8218 46.2539 60.8962C42.0934 61.9814 38.6155 64.6003 36.4583 68.2752L25.8579 86.3458C25.3202 87.2618 25.181 88.319 25.4549 89.3316C25.7287 90.3439 26.3855 91.2009 27.3121 91.7228L27.3886 91.7664C29.2924 92.8605 31.7425 92.2161 32.8518 90.3386L43.4913 72.276C45.7187 68.5188 50.6315 67.2084 54.4557 69.3558C56.3002 70.4016 57.6117 72.1071 58.1662 74.1574C58.7253 76.2248 58.439 78.3779 57.3549 80.2123L40.3145 109.117C40.2829 109.171 40.2575 109.214 40.2455 109.272C38.3482 112.404 35.3299 114.638 31.7365 115.565C28.1171 116.499 24.3516 116.004 21.1365 114.161C19.5232 113.219 18.1371 111.988 17.0068 110.509C15.9163 109.073 15.1283 107.458 14.6589 105.722C13.6971 102.166 14.1864 98.474 16.0377 95.3078C16.0653 95.2732 16.0843 95.2408 16.1119 95.2063L37.4903 58.7997C37.5093 58.7674 37.526 58.7266 37.5426 58.6857C38.9056 56.4135 40.6764 54.4532 42.8107 52.8803C44.8915 51.3488 47.2173 50.245 49.7365 49.5824C52.2555 48.9199 54.8431 48.7496 57.4124 49.058C60.0793 49.3863 62.6157 50.2228 64.952 51.5494C67.2906 52.8845 69.2893 54.6371 70.9061 56.7543C72.4654 58.7956 73.5957 61.0955 74.2675 63.5798C74.9417 66.0726 75.1252 68.6306 74.7998 71.1858C74.4691 73.8244 73.6083 76.3473 72.2505 78.6729L57.4628 103.777C56.925 104.693 56.7773 105.753 57.0534 106.774C57.3295 107.795 57.9927 108.641 58.9106 109.165L58.9653 109.196C60.8667 110.282 63.3168 109.637 64.4176 107.762L79.1903 82.6707C81.0946 79.4268 82.3056 75.9096 82.7777 72.2223C83.2365 68.6569 82.9827 65.0875 82.0393 61.5994C81.0983 58.1197 79.5073 54.902 77.3199 52.0418C75.0573 49.0737 72.2418 46.6247 68.9548 44.7554Z" fill="#4100B3"/>
<rect x="73.8865" y="2" width="16.0252" height="42.7339" rx="6" transform="rotate(3.50869 73.8865 2)" fill="#03A309"/>
<rect x="115.325" y="38.1638" width="16.0252" height="42.7339" rx="6" transform="rotate(102.877 115.325 38.1638)" fill="#03A309"/>
<rect x="107.163" y="6.98077" width="16.0252" height="42.7339" rx="6" transform="rotate(51.3396 107.163 6.98077)" fill="#03A309"/>
</svg>
   